<?xml version="1.0" encoding="UTF-8" standalone="no"?>
<!-- Created with Inkscape (http://www.inkscape.org/) -->

<svg
   width="1024"
   height="500"
   viewBox="0 0 270.93333 132.29167"
   version="1.1"
   id="svg5"
   inkscape:version="1.1.2 (b8e25be833, 2022-02-05)"
   sodipodi:docname="feature-graphic-play-store.svg"
   inkscape:export-filename="C:\Users\tom\Desktop\myprojects\android\WordGuessingGame\docs\icons\icon-store-512.png"
   inkscape:export-xdpi="49.150002"
   inkscape:export-ydpi="49.150002"
   xmlns:inkscape="http://www.inkscape.org/namespaces/inkscape"
   xmlns:sodipodi="http://sodipodi.sourceforge.net/DTD/sodipodi-0.dtd"
   xmlns="http://www.w3.org/2000/svg"
   xmlns:svg="http://www.w3.org/2000/svg">
  <sodipodi:namedview
     id="namedview7"
     pagecolor="#dcdcdc"
     bordercolor="#666666"
     borderopacity="1.0"
     inkscape:pageshadow="2"
     inkscape:pageopacity="1"
     inkscape:pagecheckerboard="0"
     inkscape:document-units="px"
     showgrid="false"
     units="px"
     inkscape:zoom="0.74920735"
     inkscape:cx="357.04401"
     inkscape:cy="547.24503"
     inkscape:window-width="1920"
     inkscape:window-height="1027"
     inkscape:window-x="1912"
     inkscape:window-y="-8"
     inkscape:window-maximized="1"
     inkscape:current-layer="layer1" />
  <defs
     id="defs2">
    <rect
       x="-226.90648"
       y="112.11849"
       width="148.15659"
       height="92.097336"
       id="rect35151" />
    <rect
       x="-364.3851"
       y="-2.669488"
       width="1500.2522"
       height="870.25305"
       id="rect29641" />
    <marker
       style="overflow:visible"
       id="Arrow1Lstart"
       refX="0"
       refY="0"
       orient="auto"
       inkscape:stockid="Arrow1Lstart"
       inkscape:isstock="true">
      <path
         transform="matrix(0.8,0,0,0.8,10,0)"
         style="fill:context-stroke;fill-rule:evenodd;stroke:context-stroke;stroke-width:1pt"
         d="M 0,0 5,-5 -12.5,0 5,5 Z"
         id="path22972" />
    </marker>
    <rect
       x="10.677952"
       y="24.025393"
       width="682.05414"
       height="232.24544"
       id="rect6326" />
  </defs>
  <g
     inkscape:label="Layer 1"
     inkscape:groupmode="layer"
     id="layer1">
    <rect
       style="fill:#bababa;fill-opacity:1;stroke:#000000;stroke-width:0.251232;stroke-miterlimit:2.3;stroke-dasharray:none;stroke-opacity:1"
       id="rect23712"
       width="32.638851"
       height="32.638851"
       x="12.051106"
       y="40.183075" />
    <rect
       style="fill:#daa164;fill-opacity:1;stroke:#000000;stroke-width:0.251232;stroke-miterlimit:2.3;stroke-dasharray:none;stroke-opacity:1"
       id="rect23712-7"
       width="32.638851"
       height="32.638851"
       x="49.608139"
       y="31.017374" />
    <rect
       style="fill:#bababa;fill-opacity:1;stroke:#000000;stroke-width:0.251232;stroke-miterlimit:2.3;stroke-dasharray:none;stroke-opacity:1"
       id="rect23712-9"
       width="32.638851"
       height="32.638851"
       x="89.62426"
       y="18.945475" />
    <rect
       style="fill:#bababa;fill-opacity:1;stroke:#000000;stroke-width:0.251232;stroke-miterlimit:2.3;stroke-dasharray:none;stroke-opacity:1"
       id="rect23712-8"
       width="32.638851"
       height="32.638851"
       x="129.41682"
       y="9.1091061" />
    <rect
       style="fill:#6ff339;fill-opacity:1;stroke:#000000;stroke-width:0.238671;stroke-miterlimit:2.3;stroke-dasharray:none;stroke-opacity:1"
       id="rect23712-2"
       width="31.007046"
       height="31.007046"
       x="92.093315"
       y="80.926819" />
    <rect
       style="fill:#daa164;fill-opacity:1;stroke:#000000;stroke-width:0.238671;stroke-miterlimit:2.3;stroke-dasharray:none;stroke-opacity:1"
       id="rect23712-2-9"
       width="31.007046"
       height="31.007046"
       x="126.41499"
       y="70.763107" />
    <rect
       style="fill:#bababa;fill-opacity:1;stroke:#000000;stroke-width:0.238671;stroke-miterlimit:2.3;stroke-dasharray:none;stroke-opacity:1"
       id="rect23712-2-3"
       width="31.007046"
       height="31.007046"
       x="162.09596"
       y="61.727024" />
    <rect
       style="fill:#daa164;fill-opacity:1;stroke:#000000;stroke-width:0.238671;stroke-miterlimit:2.3;stroke-dasharray:none;stroke-opacity:1"
       id="rect23712-2-33"
       width="31.007046"
       height="31.007046"
       x="196.15506"
       y="52.459248" />
    <rect
       style="fill:#6ff339;fill-opacity:1;stroke:#000000;stroke-width:0.238671;stroke-miterlimit:2.3;stroke-dasharray:none;stroke-opacity:1"
       id="rect23712-2-6"
       width="31.007046"
       height="31.007046"
       x="229.9825"
       y="45.045017" />
    <path
       d="M 44.689958,40.183077 37.214056,68.600766 H 33.633492 L 28.16428,49.974046 q -0.354122,-1.11442 -0.668897,-2.26864 -0.275428,-1.194021 -0.511509,-2.069635 -0.196735,-0.915415 -0.236081,-1.273621 -0.03935,0.517408 -0.432816,2.228837 -0.393469,1.671629 -0.904978,3.502459 l -5.311825,18.50732 H 16.517611 L 9.0810554,40.183077 H 12.77966 l 4.3675,17.353099 q 0.472163,1.83083 0.786937,3.54226 0.354122,1.71143 0.550856,3.22385 0.196735,-1.55222 0.590203,-3.38305 0.393469,-1.83083 0.904978,-3.58206 l 4.957703,-17.154099 h 3.659258 l 5.154438,17.273499 q 0.550856,1.83083 0.944324,3.66166 0.393469,1.83083 0.590203,3.18405 0.157387,-1.47262 0.511509,-3.18405 0.393469,-1.75123 0.865631,-3.62186 l 4.328154,-17.313299 z"
       id="path37809"
       style="font-size:40px;line-height:1.25;white-space:pre;stroke-width:0.989331" />
    <path
       d="m 78.20024,46.415621 q 0,4.417875 -1.495182,7.721335 -1.455833,3.26365 -4.3675,5.09449 -2.872322,1.83083 -7.082435,1.83083 -4.367502,0 -7.279169,-1.83083 -2.87232,-1.83084 -4.288807,-5.13429 -1.416487,-3.30346 -1.416487,-7.721336 0,-4.338274 1.416487,-7.601931 1.416487,-3.303455 4.288807,-5.134287 2.911667,-1.830832 7.318515,-1.830832 4.210113,0 7.082432,1.830832 2.872324,1.791031 4.328157,5.094486 1.495182,3.263657 1.495182,7.681533 z m -22.191628,0 q 0,5.373095 2.24277,8.477545 2.242771,3.06465 7.003741,3.06465 4.760968,0 6.964395,-3.06465 2.242767,-3.10445 2.242767,-8.477545 0,-5.373093 -2.203424,-8.397945 -2.203423,-3.064652 -6.964392,-3.064652 -4.800316,0 -7.043087,3.064652 -2.24277,3.024852 -2.24277,8.397945 z"
       id="path37811"
       style="font-size:40px;line-height:1.25;white-space:pre;stroke-width:0.989331" />
    <path
       d="m 103.79316,19.056906 q 5.23314,0 7.71199,2.029834 2.5182,1.990035 2.5182,6.049705 0,2.268639 -0.82629,3.781065 -0.82628,1.512426 -2.12473,2.427842 -1.2591,0.915415 -2.67559,1.393023 l 7.71199,12.73622 h -4.13142 l -6.807,-11.741202 H 99.583047 V 47.474595 H 96.04183 V 19.056906 Z m -0.19673,3.104453 h -4.013383 v 10.547182 h 4.210113 q 3.42318,0 4.99705,-1.353224 1.57388,-1.393024 1.57388,-4.05967 0,-2.786048 -1.65257,-3.940268 -1.65257,-1.19402 -5.11509,-1.19402 z"
       id="path37813"
       style="font-size:40px;line-height:1.25;white-space:pre;stroke-width:0.989331" />
    <path
       d="m 157.10586,23.374333 q 0,7.203925 -3.89534,10.865588 -3.85599,3.621862 -10.78104,3.621862 h -7.83002 V 9.4440942 h 8.6563 q 4.21012,0 7.31852,1.5920268 3.14775,1.592027 4.83967,4.696481 1.69191,3.104453 1.69191,7.641731 z m -3.73795,0.119402 q 0,-5.691497 -2.79363,-8.318343 -2.75428,-2.666646 -7.83002,-2.666646 h -4.60359 V 34.79713 h 3.81665 q 11.41059,0 11.41059,-11.303395 z"
       id="path37815"
       style="font-size:40px;line-height:1.25;white-space:pre;stroke-width:0.989331" />
    <path
       d="m 108.06383,92.890224 h 10.07259 v 14.437506 q -2.36522,0.78375 -4.77122,1.155 -2.40601,0.37126 -5.46448,0.37126 -4.52655,0 -7.62581,-1.81501 -3.099255,-1.85625 -4.730442,-5.23876 -1.590408,-3.423746 -1.590408,-8.085006 0,-4.57875 1.753527,-7.96125 1.794306,-3.42376 5.179023,-5.28001 3.38471,-1.89751 8.15594,-1.89751 2.44678,0 4.6081,0.45375 2.20211,0.45375 4.07797,1.27876 l -1.38651,3.2175 q -1.54963,-0.66 -3.50705,-1.155 -1.91665,-0.53625 -3.99641,-0.53625 -5.2198,0 -8.15594,3.2175 -2.895359,3.17626 -2.895359,8.66251 0,3.50626 1.101052,6.22876 1.141827,2.681256 3.547837,4.207506 2.406,1.485 6.32085,1.485 1.91665,0 3.26238,-0.20625 1.34573,-0.20625 2.44678,-0.495 v -8.745006 h -6.40242 z"
       id="path37817"
       style="font-size:40px;line-height:1.25;white-space:pre;stroke-width:1.02536" />
    <path
       d="m 153.50891,67.867604 v 19.05753 q 0,3.0525 -1.22339,5.5275 -1.22339,2.43376 -3.75173,3.87751 -2.52834,1.4025 -6.36163,1.4025 -5.46448,0 -8.27828,-2.97 -2.8138,-3.01126 -2.8138,-7.92001 v -18.97503 h 3.67017 v 19.09878 q 0,3.58875 1.87587,5.56875 1.91664,1.98001 5.74993,1.98001 3.95564,0 5.70916,-2.10376 1.79431,-2.145 1.79431,-5.48625 v -19.05753 z"
       id="path37819"
       style="font-size:40px;line-height:1.25;white-space:pre;stroke-width:1.02536" />
    <path
       d="m 185.55594,89.905914 h -16.2711 v -29.45254 h 16.2711 v 3.25875 h -12.60093 v 9.19876 h 11.8669 v 3.21751 h -11.8669 v 10.51876 h 12.60093 z"
       id="path37821"
       style="font-size:40px;line-height:1.25;white-space:pre;stroke-width:1.02536" />
    <path
       d="m 222.37579,72.991064 q 0,3.91876 -2.8138,6.10501 -2.8138,2.18626 -7.58502,2.18626 -2.44678,0 -4.52654,-0.37126 -2.07977,-0.37125 -3.46628,-1.03125 v -3.5475 q 1.46807,0.66 3.6294,1.19625 2.2021,0.53625 4.52654,0.53625 3.22159,0 4.89356,-1.27875 1.67197,-1.27875 1.67197,-3.46501 0,-1.44375 -0.61169,-2.43375 -0.6117,-0.99 -2.12055,-1.815 -1.50885,-0.825 -4.11875,-1.815 -3.75173,-1.36125 -5.62759,-3.34126 -1.87587,-1.98 -1.87587,-5.40375 0,-2.31001 1.18261,-4.00127 1.18261,-1.69125 3.26237,-2.59875 2.07977,-0.9075 4.85279,-0.9075 2.36522,0 4.36342,0.45375 1.99821,0.45375 3.67018,1.19625 l -1.14183,3.17626 q -1.50885,-0.66 -3.30315,-1.11375 -1.79431,-0.45375 -3.67018,-0.45375 -2.73224,0 -4.11875,1.19625 -1.38651,1.155 -1.38651,3.09376 0,1.48499 0.61169,2.475 0.6117,0.99 1.99821,1.815 1.38651,0.78375 3.75173,1.65 2.56912,0.94876 4.32265,2.06251 1.79431,1.07249 2.69146,2.59875 0.93793,1.52625 0.93793,3.83625 z"
       id="path37823"
       style="font-size:40px;line-height:1.25;white-space:pre;stroke-width:1.02536" />
    <path
       d="m 255.1901,64.650054 q 0,3.91876 -2.81379,6.10501 -2.8138,2.18626 -7.58502,2.18626 -2.44679,0 -4.52656,-0.37125 -2.07976,-0.37126 -3.46627,-1.03126 v -3.5475 q 1.46807,0.66 3.62939,1.19625 2.20211,0.53625 4.52655,0.53625 3.2216,0 4.89357,-1.27875 1.67196,-1.27875 1.67196,-3.46501 0,-1.44375 -0.61169,-2.43375 -0.6117,-0.99 -2.12055,-1.815 -1.50885,-0.825 -4.11875,-1.815 -3.75173,-1.36125 -5.6276,-3.34126 -1.87586,-1.98 -1.87586,-5.40376 0,-2.31 1.18261,-4.00125 1.18261,-1.69126 3.26238,-2.59876 2.07976,-0.9075 4.85278,-0.9075 2.36522,0 4.36343,0.45375 1.9982,0.45375 3.67017,1.19626 l -1.14183,3.17625 q -1.50885,-0.66 -3.30316,-1.11375 -1.7943,-0.45375 -3.67017,-0.45375 -2.73224,0 -4.11875,1.19625 -1.38651,1.155 -1.38651,3.09376 0,1.485 0.6117,2.475 0.61169,0.99 1.9982,1.815 1.38651,0.78375 3.75173,1.65 2.56913,0.94875 4.32265,2.0625 1.79431,1.07251 2.69146,2.59876 0.93793,1.52625 0.93793,3.83625 z"
       id="path37825"
       style="font-size:40px;line-height:1.25;white-space:pre;stroke-width:1.02536" />
    <text
       xml:space="preserve"
       transform="scale(0.26458333)"
       id="text35149"
       style="font-style:normal;font-weight:normal;font-size:40px;line-height:1.25;font-family:sans-serif;white-space:pre;shape-inside:url(#rect35151);fill:#000000;fill-opacity:1;stroke:none" />
  </g>
</svg>
