<?xml version="1.0" encoding="UTF-8" standalone="no"?>
<!-- Created with Inkscape (http://www.inkscape.org/) -->

<svg
   width="1000"
   height="1000"
   viewBox="0 0 264.58333 264.58334"
   version="1.1"
   id="svg5"
   inkscape:version="1.1.2 (b8e25be833, 2022-02-05)"
   sodipodi:docname="launcher-icon.svg"
   xmlns:inkscape="http://www.inkscape.org/namespaces/inkscape"
   xmlns:sodipodi="http://sodipodi.sourceforge.net/DTD/sodipodi-0.dtd"
   xmlns="http://www.w3.org/2000/svg"
   xmlns:svg="http://www.w3.org/2000/svg">
  <sodipodi:namedview
     id="namedview7"
     pagecolor="#dcdcdc"
     bordercolor="#666666"
     borderopacity="1.0"
     inkscape:pageshadow="2"
     inkscape:pageopacity="1"
     inkscape:pagecheckerboard="0"
     inkscape:document-units="px"
     showgrid="false"
     units="px"
     inkscape:zoom="0.74920735"
     inkscape:cx="357.04401"
     inkscape:cy="507.20271"
     inkscape:window-width="1920"
     inkscape:window-height="1027"
     inkscape:window-x="-8"
     inkscape:window-y="-8"
     inkscape:window-maximized="1"
     inkscape:current-layer="layer1" />
  <defs
     id="defs2">
    <rect
       x="-226.90648"
       y="112.11849"
       width="148.15658"
       height="92.097334"
       id="rect35151" />
    <rect
       x="-364.38511"
       y="-2.669488"
       width="1500.2522"
       height="870.25307"
       id="rect29641" />
    <marker
       style="overflow:visible"
       id="Arrow1Lstart"
       refX="0.0"
       refY="0.0"
       orient="auto"
       inkscape:stockid="Arrow1Lstart"
       inkscape:isstock="true">
      <path
         transform="scale(0.8) translate(12.5,0)"
         style="fill-rule:evenodd;fill:context-stroke;stroke:context-stroke;stroke-width:1.0pt"
         d="M 0.0,0.0 L 5.0,-5.0 L -12.5,0.0 L 5.0,5.0 L 0.0,0.0 z "
         id="path22972" />
    </marker>
    <rect
       x="10.677952"
       y="24.025392"
       width="682.05416"
       height="232.24543"
       id="rect6326" />
  </defs>
  <g
     inkscape:label="Layer 1"
     inkscape:groupmode="layer"
     id="layer1">
    <rect
       style="fill:#bababa;stroke:#000000;stroke-width:0.396875;stroke-miterlimit:2.3;stroke-dasharray:none;stroke-opacity:1;fill-opacity:1"
       id="rect23712"
       width="51.560047"
       height="51.560047"
       x="7.0630178"
       y="71.336502" />
    <rect
       style="fill:#daa164;stroke:#000000;stroke-width:0.396875;stroke-miterlimit:2.3;stroke-dasharray:none;stroke-opacity:1;fill-opacity:1"
       id="rect23712-7"
       width="51.560047"
       height="51.560047"
       x="66.392387"
       y="56.857315" />
    <rect
       style="fill:#bababa;stroke:#000000;stroke-width:0.396875;stroke-miterlimit:2.3;stroke-dasharray:none;stroke-opacity:1;fill-opacity:1"
       id="rect23712-9"
       width="51.560047"
       height="51.560047"
       x="129.60641"
       y="37.787159" />
    <rect
       style="fill:#bababa;stroke:#000000;stroke-width:0.396875;stroke-miterlimit:2.3;stroke-dasharray:none;stroke-opacity:1;fill-opacity:1"
       id="rect23712-8"
       width="51.560047"
       height="51.560047"
       x="192.4673"
       y="22.248516" />
    <rect
       style="fill:#6ff339;stroke:#000000;stroke-width:0.363785;stroke-miterlimit:2.3;stroke-dasharray:none;stroke-opacity:1;fill-opacity:1"
       id="rect23712-2"
       width="47.261215"
       height="47.261215"
       x="4.2212677"
       y="185.38774" />
    <rect
       style="fill:#daa164;stroke:#000000;stroke-width:0.363785;stroke-miterlimit:2.3;stroke-dasharray:none;stroke-opacity:1;fill-opacity:1"
       id="rect23712-2-9"
       width="47.261215"
       height="47.261215"
       x="56.534676"
       y="169.89613" />
    <rect
       style="fill:#bababa;stroke:#000000;stroke-width:0.363785;stroke-miterlimit:2.3;stroke-dasharray:none;stroke-opacity:1;fill-opacity:1"
       id="rect23712-2-3"
       width="47.261215"
       height="47.261215"
       x="110.91993"
       y="156.12325" />
    <rect
       style="fill:#daa164;stroke:#000000;stroke-width:0.363785;stroke-miterlimit:2.3;stroke-dasharray:none;stroke-opacity:1;fill-opacity:1"
       id="rect23712-2-33"
       width="47.261215"
       height="47.261215"
       x="162.83311"
       y="141.99721" />
    <rect
       style="fill:#6ff339;stroke:#000000;stroke-width:0.363785;stroke-miterlimit:2.3;stroke-dasharray:none;stroke-opacity:1;fill-opacity:1"
       id="rect23712-2-6"
       width="47.261215"
       height="47.261215"
       x="214.39319"
       y="130.69638" />
    <g
       aria-label="WORD

GUESS"
       transform="matrix(1.5539194,0,0,1.5718425,469.19555,-6.1769113)"
       id="text29639"
       style="font-size:40px;line-height:1.25;white-space:pre;shape-inside:url(#rect29641)">
      <path
         d="m -264.21736,49.313728 -7.6,28.559999 h -3.64 l -5.56,-18.72 q -0.36,-1.12 -0.68,-2.28 -0.28,-1.2 -0.52,-2.08 -0.2,-0.919999 -0.24,-1.279999 -0.04,0.52 -0.44,2.239999 -0.4,1.68 -0.92,3.52 l -5.4,18.6 h -3.64 l -7.56,-28.559999 h 3.76 l 4.44,17.439999 q 0.48,1.84 0.8,3.56 0.36,1.72 0.56,3.24 0.2,-1.56 0.6,-3.4 0.4,-1.84 0.92,-3.6 l 5.04,-17.239999 h 3.72 l 5.24,17.359999 q 0.56,1.84 0.96,3.68 0.4,1.84 0.6,3.2 0.16,-1.48 0.52,-3.2 0.4,-1.76 0.88,-3.64 l 4.4,-17.399999 z"
         id="path37809" />
      <path
         d="m -230.15082,55.577483 q 0,4.44 -1.52,7.76 -1.48,3.28 -4.44,5.12 -2.92,1.84 -7.2,1.84 -4.44,0 -7.4,-1.84 -2.92,-1.84 -4.36,-5.16 -1.44,-3.32 -1.44,-7.76 0,-4.36 1.44,-7.64 1.44,-3.319999 4.36,-5.159999 2.96,-1.84 7.44,-1.84 4.28,0 7.2,1.84 2.92,1.8 4.4,5.119999 1.52,3.28 1.52,7.72 z m -22.56,0 q 0,5.4 2.28,8.52 2.28,3.08 7.12,3.08 4.84,0 7.08,-3.08 2.28,-3.12 2.28,-8.52 0,-5.4 -2.24,-8.44 -2.24,-3.079999 -7.08,-3.079999 -4.88,0 -7.16,3.079999 -2.28,3.04 -2.28,8.44 z"
         id="path37811" />
      <path
         d="m -204.13306,28.08176 q 5.32,0 7.84,2.04 2.56,2 2.56,6.08 0,2.28 -0.84,3.8 -0.84,1.52 -2.16,2.44 -1.28,0.92 -2.72,1.4 l 7.84,12.8 h -4.2 l -6.92,-11.8 h -5.68 v 11.8 h -3.6 v -28.56 z m -0.2,3.12 h -4.08 v 10.6 h 4.28 q 3.48,0 5.08,-1.36 1.6,-1.4 1.6,-4.08 0,-2.8 -1.68,-3.96 -1.68,-1.2 -5.2,-1.2 z"
         id="path37813" />
      <path
         d="m -149.93539,32.420809 q 0,7.24 -3.96,10.92 -3.92,3.64 -10.96,3.64 h -7.96 v -28.56 h 8.8 q 4.28,0 7.44,1.6 3.2,1.6 4.92,4.72 1.72,3.12 1.72,7.68 z m -3.8,0.12 q 0,-5.72 -2.84,-8.36 -2.8,-2.68 -7.96,-2.68 h -4.68 v 22.4 h 3.88 q 11.6,0 11.6,-11.36 z"
         id="path37815" />
      <path
         d="m -283.5616,133.47353 h 9.88 v 14 q -2.32,0.76 -4.68,1.12 -2.36,0.36 -5.36,0.36 -4.44,0 -7.48,-1.76 -3.04,-1.8 -4.64,-5.08 -1.56,-3.32 -1.56,-7.84 0,-4.44 1.72,-7.72 1.76,-3.32 5.08,-5.12 3.32,-1.84 8,-1.84 2.4,0 4.52,0.44 2.16,0.44 4,1.24 l -1.36,3.12 q -1.52,-0.64 -3.44,-1.12 -1.88,-0.52 -3.92,-0.52 -5.12,0 -8,3.12 -2.84,3.08 -2.84,8.4 0,3.4 1.08,6.04 1.12,2.6 3.48,4.08 2.36,1.44 6.2,1.44 1.88,0 3.2,-0.2 1.32,-0.2 2.4,-0.48 v -8.48 h -6.28 z"
         id="path37817" />
      <path
         d="m -238.98542,109.20921 v 18.48 q 0,2.96 -1.2,5.36 -1.2,2.36 -3.68,3.76 -2.48,1.36 -6.24,1.36 -5.36,0 -8.12,-2.88 -2.76,-2.92 -2.76,-7.68 v -18.4 h 3.6 v 18.52 q 0,3.48 1.84,5.4 1.88,1.92 5.64,1.92 3.88,0 5.6,-2.04 1.76,-2.08 1.76,-5.32 v -18.48 z"
         id="path37819" />
      <path
         d="m -207.55112,130.57966 h -15.96 v -28.56 h 15.96 v 3.16 h -12.36 v 8.92 h 11.64 v 3.12 h -11.64 v 10.2 h 12.36 z"
         id="path37821" />
      <path
         d="m -171.43525,114.17741 q 0,3.8 -2.76,5.92 -2.76,2.12 -7.44,2.12 -2.4,0 -4.44,-0.36 -2.04,-0.36 -3.4,-1 v -3.44 q 1.44,0.64 3.56,1.16 2.16,0.52 4.44,0.52 3.16,0 4.8,-1.24 1.64,-1.24 1.64,-3.36 0,-1.4 -0.6,-2.36 -0.6,-0.96 -2.08,-1.76 -1.48,-0.8 -4.04,-1.76 -3.68,-1.32 -5.52,-3.24 -1.84,-1.92 -1.84,-5.24 0,-2.240004 1.16,-3.880004 1.16,-1.64 3.2,-2.52 2.04,-0.88 4.76,-0.88 2.32,0 4.28,0.44 1.96,0.44 3.6,1.16 l -1.12,3.08 q -1.48,-0.64 -3.24,-1.08 -1.76,-0.44 -3.6,-0.44 -2.68,0 -4.04,1.16 -1.36,1.12 -1.36,3.000004 0,1.44 0.6,2.4 0.6,0.96 1.96,1.76 1.36,0.76 3.68,1.6 2.52,0.92 4.24,2 1.76,1.04 2.64,2.52 0.92,1.48 0.92,3.72 z"
         id="path37823" />
      <path
         d="m -139.24834,106.08917 q 0,3.8 -2.76,5.92 -2.76,2.12 -7.44,2.12 -2.4,0 -4.44,-0.36 -2.04,-0.36 -3.4,-1 v -3.44 q 1.44,0.64 3.56,1.16 2.16,0.52 4.44,0.52 3.16,0 4.8,-1.24 1.64,-1.24 1.64,-3.36 0,-1.4 -0.6,-2.36 -0.6,-0.96 -2.08,-1.76 -1.48,-0.8 -4.04,-1.76 -3.68,-1.320002 -5.52,-3.240002 -1.84,-1.92 -1.84,-5.24 0,-2.24 1.16,-3.88 1.16,-1.64 3.2,-2.52 2.04,-0.88 4.76,-0.88 2.32,0 4.28,0.44 1.96,0.44 3.6,1.16 l -1.12,3.08 q -1.48,-0.64 -3.24,-1.08 -1.76,-0.44 -3.6,-0.44 -2.68,0 -4.04,1.16 -1.36,1.12 -1.36,3 0,1.44 0.6,2.4 0.6,0.96 1.96,1.76 1.36,0.76 3.68,1.6 2.52,0.92 4.24,2 1.76,1.040002 2.64,2.520002 0.92,1.48 0.92,3.72 z"
         id="path37825" />
    </g>
    <text
       xml:space="preserve"
       transform="scale(0.26458333)"
       id="text35149"
       style="font-style:normal;font-weight:normal;font-size:40px;line-height:1.25;font-family:sans-serif;white-space:pre;shape-inside:url(#rect35151);fill:#000000;fill-opacity:1;stroke:none" />
  </g>
</svg>
